<svg xmlns="http://www.w3.org/2000/svg" width="32" height="32" viewBox="0 0 32 32">
  <rect width="32" height="32" rx="6" fill="#2d3748"/>
  <!-- Head -->
  <rect x="10" y="3" width="12" height="10" rx="2" fill="#4a9e8e"/>
  <rect x="9" y="5" width="14" height="7" fill="#4a9e8e"/>
  <!-- Eyes -->
  <rect x="12" y="7" width="3" height="3" fill="white"/>
  <rect x="17" y="7" width="3" height="3" fill="white"/>
  <rect x="13" y="8" width="2" height="2" fill="#1a202c"/>
  <rect x="18" y="8" width="2" height="2" fill="#1a202c"/>
  <!-- Tentacles -->
  <rect x="7" y="14" width="4" height="2" fill="#4a9e8e"/>
  <rect x="11" y="14" width="4" height="2" fill="#5bb8a6"/>
  <rect x="17" y="14" width="4" height="2" fill="#5bb8a6"/>
  <rect x="21" y="14" width="4" height="2" fill="#4a9e8e"/>
  <rect x="5" y="16" width="2" height="3" fill="#4a9e8e"/>
  <rect x="9" y="16" width="2" height="3" fill="#5bb8a6"/>
  <rect x="13" y="16" width="2" height="2" fill="#4a9e8e"/>
  <rect x="17" y="16" width="2" height="2" fill="#4a9e8e"/>
  <rect x="21" y="16" width="2" height="3" fill="#5bb8a6"/>
  <rect x="25" y="16" width="2" height="3" fill="#4a9e8e"/>
  <rect x="5" y="19" width="2" height="2" fill="#5bb8a6"/>
  <rect x="7" y="21" width="2" height="2" fill="#4a9e8e"/>
  <rect x="9" y="19" width="2" height="2" fill="#4a9e8e"/>
  <rect x="11" y="21" width="2" height="2" fill="#5bb8a6"/>
  <rect x="13" y="18" width="2" height="2" fill="#5bb8a6"/>
  <rect x="15" y="20" width="2" height="2" fill="#4a9e8e"/>
  <rect x="17" y="18" width="2" height="2" fill="#5bb8a6"/>
  <rect x="19" y="21" width="2" height="2" fill="#5bb8a6"/>
  <rect x="21" y="19" width="2" height="2" fill="#4a9e8e"/>
  <rect x="23" y="21" width="2" height="2" fill="#4a9e8e"/>
  <rect x="25" y="19" width="2" height="2" fill="#5bb8a6"/>
</svg>
